<?xml version="1.0" encoding="UTF-8"?>
<svg version="1.1" xmlns="http://www.w3.org/2000/svg" width="900" height="500">
<path d="M0 0 C297 0 594 0 900 0 C900 165 900 330 900 500 C603 500 306 500 0 500 C0 335 0 170 0 0 Z " fill="#FEFEFE" transform="translate(0,0)"/>
<path d="M0 0 C12.78243217 7.84033848 20.92431675 18.23728899 25.23046875 32.640625 C27.89769675 44.93412134 25.34940407 57.43732664 19.10546875 68.265625 C18.09167685 69.80517995 17.05164905 71.32793294 15.98046875 72.828125 C15.54089844 73.46234375 15.10132812 74.0965625 14.6484375 74.75 C7.26240817 84.37099498 -5.23185691 90.08036439 -17.01953125 91.828125 C-31.21507845 93.20265211 -43.86561761 88.49426656 -54.78125 79.5703125 C-63.55834096 71.40984826 -69.80828755 60.52938243 -70.3203125 48.33984375 C-70.51760926 32.21124839 -67.61996686 20.64475698 -56.20703125 8.515625 C-41.32632638 -5.50326298 -18.39379834 -9.40566988 0 0 Z " fill="#1154A4" transform="translate(89.01953125,206.171875)"/>
<path d="M0 0 C3.08987438 2.38504128 5.65645559 4.90394421 6.30859375 8.8828125 C6.63670603 14.58997753 5.53914596 17.84706275 1.8359375 22.2109375 C-5.122986 28.99218635 -12.87469199 31.01427409 -22.375 31.4375 C-28.78193124 31.34065104 -33.81249734 29.80550389 -39 26 C-41.78969788 22.76445999 -42.84112725 20.13480539 -43.4375 15.875 C-42.70061633 9.34831609 -39.13361983 4.80172341 -34.1875 0.625 C-22.96329774 -5.09714233 -11.32218208 -6.44908173 0 0 Z " fill="#291E1B" transform="translate(343,236)"/>
<path d="M0 0 C3.34992397 3.34992397 3.96727282 5.09435699 4.4375 9.875 C4.25629256 15.96810004 1.5035711 19.6534527 -2.75 23.8125 C-11.35146413 29.88412174 -20.62637662 31.13781994 -30.9375 30.0625 C-36.46425761 28.24209236 -40.7541121 26.04016108 -43.9375 21.0625 C-45.34205996 16.84882012 -45.84624262 13.21006665 -44.06640625 9.00390625 C-39.95964333 1.88102893 -34.28744629 -2.09914293 -26.45703125 -4.43359375 C-17.0690835 -6.3111833 -8.03144907 -5.29733875 0 0 Z " fill="#291E1B" transform="translate(445.9375,236.9375)"/>
<path d="M0 0 C3.24161885 3.34291944 3.89042103 5.12325172 4.4375 9.8125 C4.26886434 14.85283242 2.31174152 18.33486536 -1 22.0625 C-9.12007142 29.04020396 -17.34320074 30.56095068 -27.8046875 30.37890625 C-33.8575317 29.77954148 -38.25952324 27.84648868 -42.5 23.5 C-45.09733824 19.27932536 -45.48171124 15.95989756 -45 11.0625 C-42.12727972 4.27360499 -37.50178413 0.17697437 -30.9375 -2.90625 C-20.75066138 -6.83545918 -9.20988498 -5.94805071 0 0 Z " fill="#291E1B" transform="translate(252,236.9375)"/>
<path d="M0 0 C5.61 0 11.22 0 17 0 C18.32 3.96 19.64 7.92 21 12 C21.59683594 11.13375 22.19367188 10.2675 22.80859375 9.375 C29.37211887 0.68217075 29.37211887 0.68217075 34.18945312 -0.56835938 C39.17133708 -1.05776359 44.04809499 -0.62697039 49 0 C47.06021923 10.84745823 44.04243733 21.4193809 41 32 C36.71 32 32.42 32 28 32 C28.64187918 26.86496656 29.68272247 22.0056546 31 17 C29.20580474 18.93521061 27.41458671 20.8730354 25.625 22.8125 C24.86316406 23.63331055 24.86316406 23.63331055 24.0859375 24.47070312 C21.84783697 26.90022015 19.83620888 29.24568668 18 32 C15.69 32 13.38 32 11 32 C8.525 24.08 8.525 24.08 6 16 C4.35 21.28 2.7 26.56 1 32 C-2.3 32 -5.6 32 -9 32 C-7.65516023 24.56942064 -5.72976307 17.54458348 -3.375 10.375 C-3.05015625 9.37082031 -2.7253125 8.36664063 -2.390625 7.33203125 C-1.59870935 4.88640939 -0.80006168 2.44296909 0 0 Z " fill="#271C19" transform="translate(156,234)"/>
<path d="M0 0 C4.91126203 -0.07424001 9.82219634 -0.12864411 14.73388672 -0.16479492 C16.40419201 -0.17986754 18.07445781 -0.2003292 19.74462891 -0.22631836 C22.14756013 -0.26276973 24.54996744 -0.27974131 26.953125 -0.29296875 C27.69806213 -0.30845261 28.44299927 -0.32393646 29.21051025 -0.33988953 C32.35958712 -0.34090828 34.64919577 -0.18196147 37.46777344 1.2800293 C39.57937469 3.65036563 39.60952533 5.8322027 39.4609375 8.9296875 C38.63924561 12.62033751 36.71400526 14.41222754 34 17 C33.01 17.33 32.02 17.66 31 18 C31.50144531 18.38800781 32.00289063 18.77601563 32.51953125 19.17578125 C34 21 34 21 34.07421875 23.48046875 C33.71614583 25.98697917 33.35807292 28.49348958 33 31 C28.38 31 23.76 31 19 31 C18.67 28.36 18.34 25.72 18 23 C14.04 22.67 10.08 22.34 6 22 C5.34 25.3 4.68 28.6 4 32 C0.04 32 -3.92 32 -8 32 C-6.36688434 21.05812507 -3.13425161 10.5865761 0 0 Z " fill="#271C1A" transform="translate(358,234)"/>
<path d="M0 0 C0.66 0 1.32 0 2 0 C2.33209473 1.12474731 2.33209473 1.12474731 2.67089844 2.2722168 C3.69651185 5.74420103 4.72325126 9.21585135 5.75 12.6875 C6.09804688 13.86634766 6.44609375 15.04519531 6.8046875 16.25976562 C9.15104627 24.18958925 11.55133836 32.1011712 14 40 C16.67843152 37.32156848 17.03964437 34.91653371 18.05859375 31.26953125 C18.24841324 30.60088547 18.43823273 29.93223969 18.63380432 29.24333191 C19.24129434 27.10142888 19.84014562 24.95725003 20.4375 22.8125 C21.0319135 20.68579913 21.62834756 18.55975435 22.23048401 16.43522644 C22.78029232 14.49443372 23.32283981 12.55158841 23.86499023 10.60864258 C25.02482151 6.92108265 26.41937371 3.52278934 28 0 C29.77923173 2.6688476 30.57940642 4.45181073 31.49633789 7.45214844 C31.91170555 8.79934967 31.91170555 8.79934967 32.33546448 10.17376709 C32.62823776 11.1425177 32.92101105 12.11126831 33.22265625 13.109375 C33.52819931 14.10954651 33.83374237 15.10971802 34.14854431 16.14019775 C34.79394933 18.25775735 35.43683384 20.37608656 36.07739258 22.49511719 C37.05513169 25.72565443 38.04358608 28.95277184 39.03320312 32.1796875 C39.65950541 34.23938542 40.28517695 36.29927526 40.91015625 38.359375 C41.20495377 39.32002869 41.49975128 40.28068237 41.80348206 41.27044678 C43.28144585 46.18733304 44.44713994 50.89275174 45 56 C44.01 56 43.02 56 42 56 C41.62488281 54.89140625 41.24976563 53.7828125 40.86328125 52.640625 C40.34718556 51.17678995 39.83021199 49.7132642 39.3125 48.25 C39.06822266 47.52039063 38.82394531 46.79078125 38.57226562 46.0390625 C36.904148 41.39367164 35.37330565 38.66349301 31 36 C27.54321553 35.0831978 27.54321553 35.0831978 24 36 C19.76125556 39.44830259 17.17513541 44.0455249 15 49 C12.42001527 45.74107191 10.30647667 42.27162281 8.18359375 38.70703125 C7.09730329 36.84856548 7.09730329 36.84856548 5 36 C1.99491063 35.65515368 -0.09596935 35.44045652 -3 36 C-8.30560527 40.46153171 -9.93271251 46.54479346 -12 53 C-12.33 53.99 -12.66 54.98 -13 56 C-13.99 56 -14.98 56 -16 56 C-15.41663613 51.30787054 -14.51712112 46.94436139 -13.14453125 42.421875 C-12.77191162 41.18646973 -12.39929199 39.95106445 -12.01538086 38.67822266 C-11.61460842 37.3687576 -11.21364477 36.05935105 -10.8125 34.75 C-10.40535422 33.40813927 -9.99853652 32.06617896 -9.59204102 30.72412109 C-6.47525146 20.45746054 -3.28077613 10.21543627 0 0 Z " fill="#F2F6FA" transform="translate(52,216)"/>
<path d="M0 0 C3.84473182 2.93413744 5.16677048 5.26565213 5.8125 10.0625 C5.0438401 16.65101342 2.23307628 23.21011194 -2.625 27.8125 C-9.29727116 32.31472409 -15.61249616 34.14791731 -23.625 32.8125 C-27.04417441 31.60537212 -29.79693083 30.12848871 -31.78515625 26.96875 C-33.57209778 22.38088152 -33.35093103 17.28153487 -31.97265625 12.59375 C-29.3352806 6.70776143 -25.07393264 2.51374118 -19.3046875 -0.33203125 C-13.14446278 -2.2986336 -6.09515903 -1.99669003 0 0 Z " fill="#F9F9F9" transform="translate(623.625,234.1875)"/>
<path d="M0 0 C2.94236845 1.84533725 4.94292422 3.91156289 5.89453125 7.2421875 C6.61966222 13.40580076 4.9342306 17.98459678 1.89453125 23.2421875 C-3.15910175 29.2267529 -8.40431153 32.71410299 -16.171875 33.43359375 C-22.0380286 33.74129385 -25.35813032 32.73002798 -30.10546875 29.2421875 C-32.90630716 24.8207971 -32.70803337 20.30678125 -32.10546875 15.2421875 C-30.31263534 9.1444068 -26.48411361 4.57992364 -21.10546875 1.2421875 C-14.66412182 -1.36290018 -6.67776189 -2.40349871 0 0 Z " fill="#FAFAFA" transform="translate(794.10546875,233.7578125)"/>
<path d="M0 0 C2.9603044 0.21505574 5.74086453 0.72092062 8.59570312 1.52270508 C10.55303741 9.26262084 12.49890649 17.00555559 14.34570312 24.77270508 C14.58804688 25.78848633 14.83039062 26.80426758 15.08007812 27.85083008 C15.59570312 30.52270508 15.59570312 30.52270508 15.59570312 34.52270508 C11.63570312 34.52270508 7.67570313 34.52270508 3.59570312 34.52270508 C3.26570312 32.54270508 2.93570313 30.56270508 2.59570312 28.52270508 C0.00894587 28.55579151 -2.56927125 28.62299401 -5.15429688 28.71020508 C-6.24871094 28.71890625 -6.24871094 28.71890625 -7.36523438 28.7277832 C-9.81958133 28.7785363 -9.81958133 28.7785363 -13.40429688 29.52270508 C-14.7883673 31.1474834 -16.12713814 32.81261118 -17.40429688 34.52270508 C-20.20117188 35.01098633 -20.20117188 35.01098633 -23.15429688 34.83520508 C-24.08145508 34.78001709 -25.00861328 34.7248291 -25.96386719 34.66796875 C-27.17187988 34.59606323 -27.17187988 34.59606323 -28.40429688 34.52270508 C-27.76814453 33.53500122 -27.76814453 33.53500122 -27.11914062 32.52734375 C-23.97133414 27.6140848 -20.89937968 22.68100853 -17.96679688 17.63598633 C-7.56297838 0.37797271 -7.56297838 0.37797271 0 0 Z " fill="#291E1B" transform="translate(516.404296875,231.477294921875)"/>
<path d="M0 0 C13.2 0 26.4 0 40 0 C39 9 39 9 38 10 C35.64686445 10.07271741 33.29166332 10.08370868 30.9375 10.0625 C29.64714844 10.05347656 28.35679687 10.04445312 27.02734375 10.03515625 C26.02832031 10.02355469 25.02929688 10.01195312 24 10 C23.83564453 11.12535156 23.83564453 11.12535156 23.66796875 12.2734375 C22.61376934 19.07859467 21.11966003 25.44832355 19 32 C14.71 32 10.42 32 6 32 C7.61834213 24.6552165 9.30320515 17.32706868 11 10 C6.71 10 2.42 10 -2 10 C-1.34 6.7 -0.68 3.4 0 0 Z " fill="#271C19" transform="translate(261,234)"/>
<path d="M0 0 C3.96 0 7.92 0 12 0 C11.35238227 7.93331718 9.11702377 15.35139799 7 23 C13.6 23 20.2 23 27 23 C26.34 25.97 25.68 28.94 25 32 C14.11 32 3.22 32 -8 32 C-5.75 21.875 -5.75 21.875 -4.4921875 17.08984375 C-4.22792969 16.08115234 -3.96367187 15.07246094 -3.69140625 14.03320312 C-3.42199219 13.01162109 -3.15257812 11.99003906 -2.875 10.9375 C-2.59785156 9.88111328 -2.32070313 8.82472656 -2.03515625 7.73632812 C-1.35827002 5.15715817 -0.6793458 2.57852321 0 0 Z " fill="#281D1A" transform="translate(459,234)"/>
<path d="M0 0 C2.31 0 4.62 0 7 0 C8.06323882 2.27048981 9.125595 4.5413864 10.1875 6.8125 C10.62545898 7.74739258 10.62545898 7.74739258 11.07226562 8.70117188 C13.75838229 14.44888388 16.37414387 20.22311651 19 26 C21.31 17.75 23.62 9.5 26 1 C27.65 0.67 29.3 0.34 31 0 C30.42138764 6.47525748 29.2759914 12.48551539 27.5625 18.75 C27.34529297 19.57371094 27.12808594 20.39742187 26.90429688 21.24609375 C25.82346011 25.27732276 24.67544641 29.16595519 23 33 C20.69 33 18.38 33 16 33 C15.67201416 32.27820557 15.34402832 31.55641113 15.00610352 30.81274414 C13.52721634 27.5616043 12.04490599 24.31203679 10.5625 21.0625 C10.04623047 19.92619141 9.52996094 18.78988281 8.99804688 17.61914062 C8.50498047 16.53955078 8.01191406 15.45996094 7.50390625 14.34765625 C7.04830322 13.34742432 6.5927002 12.34719238 6.12329102 11.31665039 C5.20058591 9.09133568 5.20058591 9.09133568 4 8 C1.69 16.25 -0.62 24.5 -3 33 C-4.65 33 -6.3 33 -8 33 C-7.42251942 27.23817133 -6.28659447 22.01911291 -4.5625 16.5 C-2.88329285 11.02887402 -1.34701302 5.56347704 0 0 Z " fill="#2F2522" transform="translate(811,233)"/>
<path d="M0 0 C2.94236845 1.84533725 4.94292422 3.91156289 5.89453125 7.2421875 C6.61966222 13.40580076 4.9342306 17.98459678 1.89453125 23.2421875 C-3.15910175 29.2267529 -8.40431153 32.71410299 -16.171875 33.43359375 C-22.0380286 33.74129385 -25.35813032 32.73002798 -30.10546875 29.2421875 C-32.90630716 24.8207971 -32.70803337 20.30678125 -32.10546875 15.2421875 C-30.31263534 9.1444068 -26.48411361 4.57992364 -21.10546875 1.2421875 C-14.66412182 -1.36290018 -6.67776189 -2.40349871 0 0 Z M-26.10546875 13.2421875 C-27.30737776 16.84791454 -27.4321719 19.452431 -27.10546875 23.2421875 C-25.3098447 25.99547771 -24.05291953 27.76846211 -21.10546875 29.2421875 C-15.13516767 29.85980485 -11.80482663 29.10011644 -6.8671875 25.67578125 C-2.91202185 22.45727616 -0.49214978 19.24172746 0.16796875 14.12109375 C0.34246435 10.14125177 0.42588556 7.96837172 -1.98046875 4.6796875 C-12.36111997 -0.09541206 -19.85070101 4.84292797 -26.10546875 13.2421875 Z " fill="#2F2522" transform="translate(794.10546875,233.7578125)"/>
<path d="M0 0 C3.84473182 2.93413744 5.16677048 5.26565213 5.8125 10.0625 C5.0438401 16.65101342 2.23307628 23.21011194 -2.625 27.8125 C-9.29727116 32.31472409 -15.61249616 34.14791731 -23.625 32.8125 C-27.04417441 31.60537212 -29.79693083 30.12848871 -31.78515625 26.96875 C-33.57209778 22.38088152 -33.35093103 17.28153487 -31.97265625 12.59375 C-29.3352806 6.70776143 -25.07393264 2.51374118 -19.3046875 -0.33203125 C-13.14446278 -2.2986336 -6.09515903 -1.99669003 0 0 Z M-23.625 7.8125 C-26.95642178 12.56599137 -28.51034405 16.94709569 -27.625 22.8125 C-25.82937595 25.56579021 -24.57245078 27.33877461 -21.625 28.8125 C-16.02056595 29.18612894 -12.4208721 29.04450076 -7.625 25.8125 C-3.14559437 21.37505602 -0.519866 17.84700197 -0.3125 11.375 C-0.27511719 10.61316406 -0.23773437 9.85132813 -0.19921875 9.06640625 C-0.80515777 5.85882079 -2.03332489 4.74761741 -4.625 2.8125 C-11.83970814 1.33699551 -18.66567902 2.09339447 -23.625 7.8125 Z " fill="#2F2522" transform="translate(623.625,234.1875)"/>
<path d="M0 0 C2.87673895 1.35212295 3.35128292 2.14645121 5 5 C5.3125 7.8125 5.3125 7.8125 5 10 C3.02 10 1.04 10 -1 10 C-1.12375 9.360625 -1.2475 8.72125 -1.375 8.0625 C-1.58125 7.381875 -1.7875 6.70125 -2 6 C-4.43954658 4.78022671 -6.15305849 4.79846187 -8.875 4.75 C-9.73867188 4.72421875 -10.60234375 4.6984375 -11.4921875 4.671875 C-14.52997101 5.069342 -15.87444237 5.80523817 -18 8 C-18 9.32 -18 10.64 -18 12 C-13.10529128 13.48969396 -8.28857916 14.53148501 -3.234375 15.33984375 C-0.65927273 16.10066942 0.42309542 16.83753476 2 19 C1.92775799 22.90106876 1.36336765 25.38507012 -0.625 28.75 C-6.28143383 34.10872679 -11.63291684 34.33999675 -19.1328125 34.3984375 C-23.37956043 33.80828997 -26.00701065 31.99298935 -29 29 C-29.125 25.875 -29.125 25.875 -29 23 C-27.35 23 -25.7 23 -24 23 C-23.896875 23.61875 -23.79375 24.2375 -23.6875 24.875 C-23.12474627 27.36526484 -23.12474627 27.36526484 -20 29 C-15.13105183 29.72070489 -10.55429855 29.81279759 -6.375 27 C-5.59125 26.34 -4.8075 25.68 -4 25 C-4.34786708 23.02463255 -4.34786708 23.02463255 -5 21 C-8.61523531 19.19238234 -12.85563452 19.18948104 -16.8359375 18.6953125 C-20.06881344 17.98487803 -21.69066492 17.34280371 -24 15 C-24.59992961 10.95047515 -24.46894071 8.79359197 -22.375 5.25 C-15.89288148 -0.89095438 -8.51139266 -1.09857541 0 0 Z " fill="#302623" transform="translate(581,233)"/>
<path d="M0 0 C2.92252134 1.35013819 3.38153534 2.08676361 5 5 C4.8125 7.8125 4.8125 7.8125 4 10 C2.35 10 0.7 10 -1 10 C-1.12375 9.360625 -1.2475 8.72125 -1.375 8.0625 C-1.58125 7.381875 -1.7875 6.70125 -2 6 C-4.43954658 4.78022671 -6.15305849 4.79846187 -8.875 4.75 C-9.73867188 4.72421875 -10.60234375 4.6984375 -11.4921875 4.671875 C-14.52997101 5.069342 -15.87444237 5.80523817 -18 8 C-18 9.32 -18 10.64 -18 12 C-13.10529128 13.48969396 -8.28857916 14.53148501 -3.234375 15.33984375 C-0.65889422 16.10078125 0.41981953 16.840078 2 19 C2 23.26876032 1.48465228 25.39072285 -1.1875 28.75 C-7.18015174 33.54412139 -11.55188625 34.34016901 -19.09765625 34.3984375 C-23.36710331 33.81232229 -25.99147012 32.00852988 -29 29 C-29.125 25.875 -29.125 25.875 -29 23 C-27.35 23 -25.7 23 -24 23 C-23.71125 23.804375 -23.4225 24.60875 -23.125 25.4375 C-22.26737432 28.1326468 -22.26737432 28.1326468 -20 29 C-15.09584021 29.53804631 -10.58363657 29.84938792 -6.375 27 C-5.59125 26.34 -4.8075 25.68 -4 25 C-4.33 23.68 -4.66 22.36 -5 21 C-6.03640625 20.81824219 -7.0728125 20.63648438 -8.140625 20.44921875 C-9.51052204 20.19588163 -10.88030806 19.9419437 -12.25 19.6875 C-12.93191406 19.56955078 -13.61382813 19.45160156 -14.31640625 19.33007812 C-18.21163246 18.59263239 -21.20358017 17.90234482 -24 15 C-24.59992961 10.95047515 -24.46894071 8.79359197 -22.375 5.25 C-15.89225989 -0.89154326 -8.5118293 -1.09730811 0 0 Z " fill="#302623" transform="translate(876,233)"/>
<path d="M0 0 C1.65 0 3.3 0 5 0 C4.46663039 4.58697861 3.54339454 8.95132405 2.4375 13.4375 C1.23900775 18.47582181 0.69657144 22.8417145 1 28 C5.64604756 29.54868252 9.49452978 29.44278536 14.1875 28.0625 C22.00327747 22.33092986 23.49665538 8.93611953 26 0 C27.65 0 29.3 0 31 0 C25.52424092 25.10693792 25.52424092 25.10693792 20.125 30 C14.36230683 33.68812363 8.78282452 35.00531149 2 34 C-3.64028777 31.07913669 -3.64028777 31.07913669 -5 27 C-5.44478921 20.82854977 -4.07267945 15.46642365 -2.5 9.5625 C-2.26152344 8.64017578 -2.02304687 7.71785156 -1.77734375 6.76757812 C-1.19238772 4.50964784 -0.59979704 2.25402453 0 0 Z " fill="#302623" transform="translate(673,233)"/>
<path d="M0 0 C0.7528125 -0.00515625 1.505625 -0.0103125 2.28125 -0.015625 C4.80423817 0.28642288 6.38904875 0.83496674 8.5 2.25 C9.56070922 5.99783924 9.88158104 8.28482443 8.4375 11.9375 C5.53140748 15.40606204 2.83695449 17.84833595 -1.75 18.63671875 C-5.54889507 18.81791605 -7.80876322 18.68834527 -11.0625 16.625 C-12.96204341 13.48662393 -13.07951985 11.87199908 -12.5 8.25 C-9.40110013 2.49490025 -6.58439401 -0.04509859 0 0 Z " fill="#F9F9F9" transform="translate(427.5,240.75)"/>
<path d="M0 0 C0.85464844 -0.00515625 1.70929688 -0.0103125 2.58984375 -0.015625 C5.24790581 0.26991721 6.85448346 0.74835117 9.0625 2.25 C10.37250764 6.50752484 10.44435241 8.48629518 8.4375 12.5 C5.49340678 15.90895005 3.4420006 17.90458862 -1.1171875 18.56640625 C-4.93360897 18.76035554 -7.22615754 18.70109522 -10.5 16.625 C-12.39954341 13.48662393 -12.51701985 11.87199908 -11.9375 8.25 C-8.86665854 2.74366358 -6.44194218 -0.03874852 0 0 Z " fill="#F8F8F8" transform="translate(325.9375,240.75)"/>
<path d="M0 0 C0.85464844 -0.01675781 1.70929688 -0.03351563 2.58984375 -0.05078125 C5.58610882 0.38942831 6.9332959 1.17359565 9.0625 3.3125 C9.66659303 7.99422097 9.76992132 10.15030783 7.3125 14.1875 C3.18084149 18.08962193 -0.24851166 18.771559 -5.80859375 18.625 C-7.9375 18.3125 -7.9375 18.3125 -10.5 16.6875 C-12.39954341 13.54912393 -12.51701985 11.93449908 -11.9375 8.3125 C-8.87376554 2.81890718 -6.42596641 0.02898932 0 0 Z " fill="#FAFAFA" transform="translate(232.9375,240.6875)"/>
<path d="M0 0 C10.56 0 21.12 0 32 0 C31.67 1.65 31.34 3.3 31 5 C26.38 5 21.76 5 17 5 C16.7525 6.340625 16.505 7.68125 16.25 9.0625 C14.64448212 17.12474089 12.59925225 25.20224325 10 33 C8.35 33 6.7 33 5 33 C6.90783447 23.48973426 9.24740303 14.3018794 12 5 C7.71 5 3.42 5 -1 5 C-0.67 3.35 -0.34 1.7 0 0 Z " fill="#332926" transform="translate(712,233)"/>
<path d="M0 0 C1.32 0 2.64 0 4 0 C3.32205707 5.29773963 2.29688584 10.43048411 1.0625 15.625 C0.89298828 16.36234375 0.72347656 17.0996875 0.54882812 17.859375 C0.37931641 18.57867187 0.20980469 19.29796875 0.03515625 20.0390625 C-0.1155835 20.68053223 -0.26632324 21.32200195 -0.42163086 21.98291016 C-1.10847626 24.37831613 -2.07451959 26.68629899 -3 29 C4.92 29 12.84 29 21 29 C20.67 30.32 20.34 31.64 20 33 C10.43 33 0.86 33 -9 33 C-2.41176471 2.41176471 -2.41176471 2.41176471 0 0 Z " fill="#2A1F1C" transform="translate(641,233)"/>
<path d="M0 0 C1.65 0 3.3 0 5 0 C3.88028786 7.28648495 2.22167755 14.41557625 0.4375 21.5625 C0.21553955 22.45549805 -0.0064209 23.34849609 -0.23510742 24.26855469 C-1.87067074 30.74134147 -1.87067074 30.74134147 -3 33 C-4.65 33 -6.3 33 -8 33 C-7.20945581 27.59054591 -5.904184 22.3549153 -4.5625 17.0625 C-4.34529297 16.19431641 -4.12808594 15.32613281 -3.90429688 14.43164062 C-2.68670751 9.594191 -1.40048528 4.78770549 0 0 Z " fill="#312624" transform="translate(752,233)"/>
<path d="M0 0 C1.93166016 0.01740234 1.93166016 0.01740234 3.90234375 0.03515625 C5.19269531 0.04417969 6.48304688 0.05320313 7.8125 0.0625 C8.81152344 0.07410156 9.81054688 0.08570313 10.83984375 0.09765625 C11.22203142 1.75380282 11.55379477 3.42222649 11.83984375 5.09765625 C10.83984375 6.09765625 10.83984375 6.09765625 7.4609375 6.1953125 C6.06637298 6.18863994 4.67182632 6.17668157 3.27734375 6.16015625 C2.56642578 6.15564453 1.85550781 6.15113281 1.12304688 6.14648438 C-0.63805638 6.13466489 -2.39911661 6.11672888 -4.16015625 6.09765625 C-4.20287725 4.4315372 -4.20079457 2.7638274 -4.16015625 1.09765625 C-3.16015625 0.09765625 -3.16015625 0.09765625 0 0 Z " fill="#F4F3F3" transform="translate(372.16015625,240.90234375)"/>
<path d="M0 0 C0.33 0 0.66 0 1 0 C1.33 3.3 1.66 6.6 2 10 C-0.64 10 -3.28 10 -6 10 C-4.34784004 6.42032008 -2.26875648 3.22017048 0 0 Z " fill="#DCDAD9" transform="translate(514,243)"/>
<path d="M0 0 C0.66 0.33 1.32 0.66 2 1 C1.34 3.31 0.68 5.62 0 8 C-0.99 8 -1.98 8 -3 8 C-2.74438677 5.6568787 -2.40729228 3.32156597 -2 1 C-1.34 0.67 -0.68 0.34 0 0 Z " fill="#E5ECF4" transform="translate(39,264)"/>
</svg>
